<svg width="22" height="24" viewBox="0 0 22 24" fill="none" xmlns="http://www.w3.org/2000/svg">
<g clip-path="url(#clip0_30_76)">
<path d="M9.06641 5.06238V2.36707C9.06641 2.0111 8.77784 1.72253 8.42188 1.72253C8.06591 1.72253 7.77734 2.0111 7.77734 2.36707V5.06238C7.77734 5.41834 8.06591 5.70691 8.42188 5.70691C8.77784 5.70691 9.06641 5.41834 9.06641 5.06238Z" fill="#DB166E"/>
<path d="M14.2227 5.06238V2.36707C14.2227 2.0111 13.9341 1.72253 13.5781 1.72253C13.2222 1.72253 12.9336 2.0111 12.9336 2.36707V5.06238C12.9336 5.41834 13.2222 5.70691 13.5781 5.70691C13.9341 5.70691 14.2227 5.41834 14.2227 5.06238Z" fill="#DB166E"/>
<path d="M11.6445 3.578V0.648315C11.6445 0.292351 11.356 0.00378418 11 0.00378418C10.644 0.00378418 10.3555 0.292351 10.3555 0.648315V3.578C10.3555 3.93397 10.644 4.22253 11 4.22253C11.356 4.22253 11.6445 3.93397 11.6445 3.578Z" fill="#DB166E"/>
<path d="M17.5798 13.5892C16.1665 12.0474 14.3787 11.0631 12.4402 10.7365C11.9945 10.6615 11.6446 10.2907 11.6446 9.83864V9.61987C11.6446 9.26391 11.356 8.97534 11.0001 8.97534C10.6441 8.97534 10.3555 9.26391 10.3555 9.61987V9.83864C10.3555 10.2907 10.0057 10.6615 9.55992 10.7365C7.62142 11.0631 5.83354 12.0474 4.42025 13.5892C3.28586 14.8268 2.48067 16.3276 2.05227 17.9653C1.76037 19.0813 2.69214 20.064 3.84563 20.064H18.1545C19.308 20.064 20.2397 19.0813 19.9478 17.9653C19.5194 16.3275 18.7142 14.8267 17.5798 13.5892Z" fill="#DB166E"/>
<path d="M20.7375 21.4705H1.26248C0.565233 21.4705 0 22.0357 0 22.7329C0 23.4302 0.565233 23.9954 1.26248 23.9954H20.7375C21.4348 23.9954 22 23.4302 22 22.7329C22 22.0357 21.4348 21.4705 20.7375 21.4705Z" fill="#DB166E"/>
</g>
<defs>
<clipPath id="clip0_30_76">
<rect width="22" height="24" fill="white"/>
</clipPath>
</defs>
</svg>
