<svg width="19" height="21" viewBox="0 0 19 21" fill="none" xmlns="http://www.w3.org/2000/svg">
<path d="M13.198 20.007H4.81705C1.76005 20.007 0.00701715 18.243 0.00701715 15.167V4.83701C-0.0629828 3.53001 0.393032 2.24799 1.27203 1.27799C2.23503 0.394987 3.51205 -0.0630094 4.81705 0.00699057H13.199C16.254 0.00699057 18.007 1.76801 18.007 4.83701V15.167C18.09 16.48 17.641 17.772 16.761 18.75C15.794 19.635 14.507 20.091 13.198 20.007ZM5.00702 13.742C4.73402 13.741 4.48102 13.883 4.33902 14.116C4.10702 14.483 4.21604 14.969 4.58304 15.2C4.70604 15.278 4.84703 15.32 4.99203 15.322C5.02503 15.323 5.05904 15.321 5.09204 15.316H12.927C13.36 15.267 13.672 14.876 13.623 14.442C13.582 14.076 13.293 13.787 12.927 13.746H5.08703C5.06103 13.743 5.03402 13.742 5.00702 13.742ZM5.08703 9.185C4.65603 9.185 4.30603 9.53401 4.30603 9.96601C4.30603 10.397 4.65603 10.746 5.08703 10.746H12.927C13.358 10.746 13.708 10.397 13.708 9.96601C13.708 9.53401 13.358 9.185 12.927 9.185H5.08703ZM5.08703 4.65601V4.66599C4.65603 4.66599 4.30704 5.01502 4.30704 5.44602C4.30704 5.87602 4.65603 6.22501 5.08703 6.22501H8.07702C8.51002 6.22501 8.86203 5.874 8.86203 5.44C8.86203 5.007 8.51002 4.655 8.07702 4.655L5.08703 4.65601Z" fill="white"/>
</svg>
