<svg width="21" height="21" viewBox="0 0 21 21" fill="none" xmlns="http://www.w3.org/2000/svg">
<path d="M20.7495 16.7919V19.1629C20.7504 19.383 20.7052 19.6009 20.6169 19.8026C20.5285 20.0042 20.3989 20.1853 20.2364 20.3341C20.0739 20.4829 19.882 20.5962 19.6731 20.6667C19.4642 20.7372 19.2428 20.7634 19.0232 20.7436C16.5863 20.4793 14.2456 19.6483 12.189 18.3173C10.2756 17.1038 8.65342 15.4848 7.43758 13.5752C6.09924 11.5134 5.26637 9.16594 5.00643 6.72301C4.98664 6.50446 5.01266 6.28418 5.08285 6.07622C5.15303 5.86825 5.26583 5.67715 5.41407 5.51508C5.56231 5.353 5.74275 5.22351 5.94388 5.13485C6.14501 5.04618 6.36244 5.00028 6.58232 5.00008H8.95804C9.34235 4.9963 9.71493 5.13212 10.0063 5.38223C10.2977 5.63234 10.4881 5.97966 10.5418 6.35946C10.6421 7.11823 10.8281 7.86325 11.0962 8.5803C11.2027 8.86318 11.2258 9.17062 11.1626 9.46617C11.0995 9.76173 10.9527 10.033 10.7398 10.2479L9.7341 11.2516C10.8614 13.2303 12.503 14.8686 14.4855 15.9937L15.4913 14.9899C15.7066 14.7774 15.9784 14.631 16.2745 14.568C16.5707 14.5049 16.8787 14.5279 17.1622 14.6343C17.8807 14.9018 18.6272 15.0874 19.3874 15.1875C19.7721 15.2417 20.1234 15.4351 20.3746 15.7309C20.6257 16.0267 20.7591 16.4043 20.7495 16.7919Z" fill="white"/>
</svg>
