<svg width="16" height="14" viewBox="0 0 16 14" fill="none" xmlns="http://www.w3.org/2000/svg">
<path d="M7.07583 2.86899C7.44952 2.15169 8.47588 2.15169 8.84956 2.86899L9.62662 4.36057C9.77622 4.64772 10.0556 4.84468 10.3763 4.88909L12.0232 5.11717C12.8598 5.23304 13.1849 6.26977 12.5642 6.8426L11.4446 7.87578C11.1932 8.10777 11.0779 8.45217 11.1388 8.78878L11.4122 10.2989C11.5588 11.1088 10.7188 11.7391 9.98218 11.3721L8.40868 10.588C8.12782 10.4481 7.79757 10.4481 7.51672 10.588L5.94321 11.3721C5.20655 11.7391 4.36662 11.1088 4.51322 10.2989L4.78658 8.78878C4.84751 8.45217 4.73215 8.10777 4.48076 7.87578L3.36122 6.8426C2.74052 6.26977 3.06559 5.23304 3.90223 5.11717L5.54909 4.88909C5.86981 4.84468 6.14918 4.64772 6.29877 4.36057L7.07583 2.86899Z" fill="#DB166E"/>
</svg>
