<svg width="15" height="20" viewBox="0 0 15 20" fill="none" xmlns="http://www.w3.org/2000/svg">
<path d="M6.23343 19.9973C5.985 19.9623 5.73374 19.9453 5.48343 19.9443C4.7447 19.9043 4.00972 19.8053 3.28505 19.6504C1.7204 19.3304 0.698559 18.7605 0.25982 17.8716C-0.0832966 17.1667 -0.087049 16.3288 0.25138 15.6209C0.681682 14.731 1.70353 14.1531 3.28505 13.8422C4.01066 13.6902 4.74564 13.5922 5.48343 13.5482C6.8334 13.4322 8.18901 13.4322 9.53898 13.5482C10.274 13.5942 11.0052 13.6922 11.728 13.8422C13.2936 14.1791 14.3145 14.731 14.7532 15.6209C15.0823 16.3168 15.0823 17.1387 14.7532 17.8356C14.3154 18.7255 13.3339 19.3124 11.712 19.6144C10.9893 19.7693 10.258 19.8693 9.5221 19.9143C8.84149 19.9813 8.15714 20.0093 7.47371 19.9973H6.23343ZM2.58289 5.39829C2.54445 2.45968 4.74751 0.0429942 7.5037 0C10.2608 0.0409945 12.4658 2.45868 12.4273 5.39829C12.4648 8.33889 10.2608 10.7556 7.5037 10.7976C4.74751 10.7536 2.54539 8.33789 2.58289 5.39829Z" fill="#C4C4C4"/>
</svg>
